<?xml version="1.0" encoding="utf-8"?>
<!-- Generator: Adobe Illustrator 25.4.1, SVG Export Plug-In . SVG Version: 6.00 Build 0)  -->
<svg version="1.1" id="Layer_1" xmlns="http://www.w3.org/2000/svg" xmlns:xlink="http://www.w3.org/1999/xlink" x="0px" y="0px"
	 viewBox="0 0 800 800" style="enable-background:new 0 0 800 800;" xml:space="preserve">
<style type="text/css">
	.st0{fill:#284F70;}
	.st1{fill:#FFFFFF;}
</style>
<path class="st0" d="M-233.3,169h-92.1c-5.5,0-10-4.5-10-10V64.9c0-5.5,4.5-10,10-10h92.1c5.5,0,10,4.5,10,10V159
	C-223.3,164.5-227.8,169-233.3,169z"/>
<path class="st0" d="M-95.9,168.7H-188c-5.5,0-10-4.5-10-10V64.5c0-5.5,4.5-10,10-10h92.1c5.5,0,10,4.5,10,10v94.2
	C-85.9,164.2-90.4,168.7-95.9,168.7z"/>
<path class="st0" d="M943.3,182.1h-92.1c-5.5,0-10-4.5-10-10V78c0-5.5,4.5-10,10-10h92.1c5.5,0,10,4.5,10,10v94.2
	C953.3,177.6,948.8,182.1,943.3,182.1z"/>
<path class="st0" d="M1081.4,181.9h-92.1c-5.5,0-10-4.5-10-10V77.7c0-5.5,4.5-10,10-10h92.1c5.5,0,10,4.5,10,10v94.2
	C1091.4,177.4,1086.9,181.9,1081.4,181.9z"/>
<path class="st0" d="M-233.3,311.1h-92.1c-5.5,0-10-4.5-10-10v-94.2c0-5.5,4.5-10,10-10h92.1c5.5,0,10,4.5,10,10v94.2
	C-223.3,306.6-227.8,311.1-233.3,311.1z"/>
<path class="st0" d="M-95.9,311.3H-188c-5.5,0-10-4.5-10-10v-94.2c0-5.5,4.5-10,10-10h92.1c5.5,0,10,4.5,10,10v94.2
	C-85.9,306.8-90.4,311.3-95.9,311.3z"/>
<path class="st0" d="M-390.1,297.3h-92.1c-5.5,0-10-4.5-10-10v-94.2c0-5.5,4.5-10,10-10h92.1c5.5,0,10,4.5,10,10v94.2
	C-380.1,292.8-384.6,297.3-390.1,297.3z"/>
<path class="st0" d="M943.3,324.8h-92.1c-5.5,0-10-4.5-10-10v-94.2c0-5.5,4.5-10,10-10h92.1c5.5,0,10,4.5,10,10v94.2
	C953.3,320.3,948.8,324.8,943.3,324.8z"/>
<path class="st0" d="M1081.4,324.6h-92.1c-5.5,0-10-4.5-10-10v-94.2c0-5.5,4.5-10,10-10h92.1c5.5,0,10,4.5,10,10v94.2
	C1091.4,320.1,1086.9,324.6,1081.4,324.6z"/>
<path class="st0" d="M-233.3,451.1h-92.1c-5.5,0-10-4.5-10-10v-94.2c0-5.5,4.5-10,10-10h92.1c5.5,0,10,4.5,10,10v94.2
	C-223.3,446.6-227.8,451.1-233.3,451.1z"/>
<path class="st0" d="M-95.9,451.3H-188c-5.5,0-10-4.5-10-10v-94.2c0-5.5,4.5-10,10-10h92.1c5.5,0,10,4.5,10,10v94.2
	C-85.9,446.8-90.4,451.3-95.9,451.3z"/>
<path class="st0" d="M-390.1,437.3h-92.1c-5.5,0-10-4.5-10-10v-94.2c0-5.5,4.5-10,10-10h92.1c5.5,0,10,4.5,10,10v94.2
	C-380.1,432.8-384.6,437.3-390.1,437.3z"/>
<path class="st0" d="M943.3,464.8h-92.1c-5.5,0-10-4.5-10-10v-94.2c0-5.5,4.5-10,10-10h92.1c5.5,0,10,4.5,10,10v94.2
	C953.3,460.3,948.8,464.8,943.3,464.8z"/>
<path class="st0" d="M1081.4,464.5h-92.1c-5.5,0-10-4.5-10-10v-94.2c0-5.5,4.5-10,10-10h92.1c5.5,0,10,4.5,10,10v94.2
	C1091.4,460,1086.9,464.5,1081.4,464.5z"/>
<path class="st0" d="M-232.9,585h-92.1c-5.5,0-10-4.5-10-10v-94.2c0-5.5,4.5-10,10-10h92.1c5.5,0,10,4.5,10,10V575
	C-222.9,580.5-227.4,585-232.9,585z"/>
<path class="st0" d="M-95.5,585.2h-92.1c-5.5,0-10-4.5-10-10V481c0-5.5,4.5-10,10-10h92.1c5.5,0,10,4.5,10,10v94.2
	C-85.5,580.7-90,585.2-95.5,585.2z"/>
<path class="st0" d="M-389.7,571.2h-92.1c-5.5,0-10-4.5-10-10V467c0-5.5,4.5-10,10-10h92.1c5.5,0,10,4.5,10,10v94.2
	C-379.7,566.7-384.2,571.2-389.7,571.2z"/>
<path class="st0" d="M943.6,598.7h-92.1c-5.5,0-10-4.5-10-10v-94.2c0-5.5,4.5-10,10-10h92.1c5.5,0,10,4.5,10,10v94.2
	C953.6,594.2,949.1,598.7,943.6,598.7z"/>
<path class="st0" d="M1081.8,598.4h-92.1c-5.5,0-10-4.5-10-10v-94.2c0-5.5,4.5-10,10-10h92.1c5.5,0,10,4.5,10,10v94.2
	C1091.8,593.9,1087.3,598.4,1081.8,598.4z"/>
<path class="st0" d="M-233.9,724.7h-92.1c-5.5,0-10-4.5-10-10v-94.2c0-5.5,4.5-10,10-10h92.1c5.5,0,10,4.5,10,10v94.2
	C-223.9,720.2-228.4,724.7-233.9,724.7z"/>
<path class="st0" d="M-96,725h-92.1c-5.5,0-10-4.5-10-10v-94.2c0-5.5,4.5-10,10-10H-96c5.5,0,10,4.5,10,10V715
	C-86,720.5-90.5,725-96,725z"/>
<path class="st0" d="M-389.7,711.2h-92.1c-5.5,0-10-4.5-10-10V607c0-5.5,4.5-10,10-10h92.1c5.5,0,10,4.5,10,10v94.2
	C-379.7,706.7-384.2,711.2-389.7,711.2z"/>
<path class="st0" d="M943.3,737.9h-92.1c-5.5,0-10-4.5-10-10v-94.2c0-5.5,4.5-10,10-10h92.1c5.5,0,10,4.5,10,10v94.2
	C953.3,733.4,948.8,737.9,943.3,737.9z"/>
<path class="st0" d="M1081.5,737.9h-92.1c-5.5,0-10-4.5-10-10v-94.2c0-5.5,4.5-10,10-10h92.1c5.5,0,10,4.5,10,10v94.2
	C1091.5,733.4,1087,737.9,1081.5,737.9z"/>
<g>
	<path class="st1" d="M-251.6,83.9c-7.5-7.5-17.4-11.6-28-11.6c-10.6,0-20.5,4.1-28,11.6c-7.5,7.5-11.6,17.4-11.6,28
		s4.1,20.5,11.6,28c7.5,7.5,17.4,11.6,28,11.6c10.6,0,20.5-4.1,28-11.6c7.5-7.5,11.6-17.4,11.6-28C-240,101.3-244.2,91.4-251.6,83.9
		z M-279.6,144.8c-18.1,0-32.9-14.8-32.9-32.9S-297.8,79-279.6,79s32.9,14.8,32.9,32.9S-261.5,144.8-279.6,144.8z"/>
	<path class="st1" d="M-291.7,132.9c-1.3-0.7-2.9-0.3-3.6,1c-0.7,1.3-0.3,2.9,1,3.6c0.4,0.2,0.9,0.4,1.3,0.4c0.9,0,1.8-0.5,2.3-1.3
		C-290,135.3-290.4,133.7-291.7,132.9z"/>
	<path class="st1" d="M-293.1,91.3c0.5,0,0.9-0.1,1.3-0.4c1.3-0.7,1.7-2.4,1-3.6c-0.7-1.3-2.4-1.7-3.6-1c-1.3,0.7-1.7,2.4-1,3.6
		C-294.9,90.8-294,91.3-293.1,91.3z"/>
	<path class="st1" d="M-304.3,100.8c0.4,0.2,0.9,0.4,1.3,0.4c0.9,0,1.8-0.5,2.3-1.3c0.7-1.3,0.3-2.9-1-3.6c-1.3-0.7-2.9-0.3-3.6,1
		C-306,98.4-305.5,100.1-304.3,100.8z"/>
	<path class="st1" d="M-279.7,87.7C-279.7,87.7-279.7,87.7-279.7,87.7c1.5,0,2.7-1.2,2.7-2.7c0-1.5-1.2-2.7-2.7-2.7
		c-1.5,0-2.7,1.2-2.7,2.7C-282.3,86.5-281.1,87.7-279.7,87.7z"/>
	<path class="st1" d="M-304.2,123.1c-1.3,0.7-1.7,2.4-1,3.6c0.5,0.9,1.4,1.3,2.3,1.3c0.5,0,0.9-0.1,1.3-0.4c1.3-0.7,1.7-2.4,1-3.6
		C-301.3,122.8-303,122.3-304.2,123.1z"/>
	<path class="st1" d="M-303.9,111.9c0-1.5-1.2-2.7-2.7-2.7s-2.7,1.2-2.7,2.7c0,1.5,1.2,2.7,2.7,2.7h0
		C-305,114.6-303.8,113.4-303.9,111.9z"/>
	<path class="st1" d="M-279.6,136.2c-1.5,0-2.7,1.2-2.7,2.7c0,1.5,1.2,2.7,2.7,2.7c1.5,0,2.7-1.2,2.7-2.7
		C-276.9,137.3-278.1,136.2-279.6,136.2z"/>
	<path class="st1" d="M-255,123.1c-1.3-0.7-2.9-0.3-3.6,1c-0.7,1.3-0.3,2.9,1,3.6c0.4,0.2,0.9,0.4,1.3,0.4c0.9,0,1.8-0.5,2.3-1.3
		C-253.2,125.4-253.7,123.8-255,123.1z"/>
	<path class="st1" d="M-252.7,109.2c-1.5,0-2.7,1.2-2.7,2.7c0,0,0,0,0,0c0,0,0,0,0,0c0,1.5,1.2,2.7,2.7,2.7s2.7-1.2,2.7-2.7
		c0,0,0,0,0,0s0,0,0,0C-250,110.4-251.2,109.2-252.7,109.2z"/>
	<path class="st1" d="M-267.5,90.9c0.4,0.2,0.9,0.4,1.3,0.4c0.9,0,1.8-0.5,2.3-1.3c0.7-1.3,0.3-2.9-1-3.6c-1.3-0.7-2.9-0.3-3.6,1
		C-269.2,88.5-268.8,90.1-267.5,90.9z"/>
	<path class="st1" d="M-267.5,132.9c-1.3,0.7-1.7,2.4-1,3.6c0.5,0.9,1.4,1.3,2.3,1.3c0.5,0,0.9-0.1,1.3-0.4c1.3-0.7,1.7-2.4,1-3.6
		C-264.6,132.6-266.2,132.2-267.5,132.9z"/>
	<path class="st1" d="M-256.3,101.1c0.5,0,0.9-0.1,1.3-0.4c1.3-0.7,1.7-2.4,1-3.6c-0.7-1.3-2.4-1.7-3.6-1c-1.3,0.7-1.7,2.4-1,3.6
		C-258.1,100.6-257.2,101.1-256.3,101.1z"/>
	<path class="st1" d="M-262.8,113.8l-14-1l-1.4-20.5c0-0.7-0.6-1.3-1.3-1.3s-1.3,0.5-1.3,1.3l-1.4,20.2l-2.2-0.2
		c-0.3,0-0.6,0.1-0.8,0.3s-0.3,0.5-0.3,0.8v3c0,0.3,0.1,0.6,0.3,0.8c0.2,0.2,0.5,0.3,0.7,0.3c0,0,0,0,0.1,0l1.9-0.1l-0.1,2
		c0,0.4,0.1,0.7,0.4,1c0.3,0.3,0.6,0.4,1,0.4h3.7c0,0,0,0,0,0c0.7,0,1.3-0.6,1.3-1.3c0-0.1-0.2-2.5-0.2-2.5l13.7-0.9
		c0.6,0,1-0.5,1-1.1C-261.8,114.3-262.3,113.8-262.8,113.8z"/>
</g>
<g>
	<path class="st0" d="M722.8,800H77.2c-38.5,0-70.1-31.5-70.1-70.1V70.1C7.2,31.5,38.7,0,77.2,0h645.5c38.5,0,70.1,31.5,70.1,70.1
		v659.9C792.8,768.5,761.3,800,722.8,800z"/>
	<path class="st1" d="M659,417.4l-41.6-23.1v-18.8c0-12.6-10.3-22.9-22.9-22.9c-10.5,0-19.3,7.1-22,16.7l-35-19.4v-17.3
		c0-12.6-10.3-22.9-22.9-22.9c-10,0-18.6,6.5-21.6,15.5l-31-17.2c-2.3-44.4-6.5-85.2-12.3-119c-4.6-26.8-10.1-48.1-16.2-63.2
		c-3.1-7.7-12.6-31-32.1-31c-19.5,0-28.9,23.4-32.1,31c-6.1,15.1-11.6,36.4-16.2,63.2c-5.8,33.8-10,74.6-12.3,119l-31,17.2
		c-3.1-9-11.6-15.5-21.6-15.5c-12.6,0-22.9,10.3-22.9,22.9v17.3l-35,19.4c-2.7-9.6-11.5-16.7-22-16.7c-12.6,0-22.9,10.3-22.9,22.9
		v18.8l-41.6,23.1c-4.5,2.5-7.4,7.3-7.4,12.5v59.7c0,4.6,2.2,9,6,11.7c3.8,2.7,8.6,3.4,13,1.8L339.5,439
		c1.7,57.4,6.4,110.3,13.6,152.4c1.3,7.6,2.7,14.8,4.1,21.6l-95.8,53.3c-2.5,1.4-4,4-4,6.8v32.4c0,2.5,1.2,4.9,3.3,6.3
		c2.1,1.5,4.7,1.8,7.1,1l112-39c5.1,6.5,12.2,11.9,21.6,11.9c9.4,0,16.4-5.4,21.6-11.9l112,39c0.8,0.3,1.7,0.4,2.6,0.4
		c1.6,0,3.2-0.5,4.5-1.4c2.1-1.5,3.3-3.8,3.3-6.3V673c0-2.8-1.5-5.4-4-6.8L445.5,613c1.4-6.7,2.8-13.9,4.1-21.6
		c7.2-42.1,11.9-95,13.6-152.4l184.1,64.2c1.5,0.5,3.1,0.8,4.7,0.8c2.9,0,5.8-0.9,8.3-2.6c3.8-2.7,6-7,6-11.7v-59.7
		C666.3,424.7,663.5,420,659,417.4z"/>
</g>
<path class="st1" d="M-101.6,127.8c-1,0-1.8,0.8-1.8,1.8c0,0.9-0.7,1.6-1.6,1.6h-8.2v-3h3.9c3.5,0,6.7-1.8,8.5-4.8
	c1.8-3,1.9-6.7,0.3-9.8c-2.7-5.3-10.7-14.2-23.4-14.2h-5.1v-6.8c5.5,0.7,17.9,2.2,18.5,2.3c0.1,0,0.1,0,0.2,0c1.8,0,3.2-1.4,3.2-3.2
	s-1.4-3.2-3.2-3.2h-41.2c-1.8,0-3.2,1.4-3.2,3.2c0,1.8,1.4,3.2,3.2,3.2c0.1,0,0.2,0,0.2,0c0.6-0.1,13.1-1.6,18.5-2.3v6.8h-9.6
	c-2.1,0-4.1,0.7-5.7,1.8h-21.4l-5.8-7.3c-1.4-1.8-3.7-2.4-5.8-1.7c-2.1,0.7-3.5,2.7-3.5,4.9v9.3c0,2.9,2.3,5.2,5.2,5.2h27.4
	c0.5,2,1.6,3.9,3.3,5.3l10.5,8.8c1.8,1.5,4.1,2.3,6.4,2.3h3.4v3h-7.8c-1,0-1.8,0.8-1.8,1.8s0.8,1.8,1.8,1.8h31.2
	c2.9,0,5.3-2.4,5.3-5.3C-99.8,128.6-100.6,127.8-101.6,127.8z M-124.8,128.2h7.8v3h-7.8V128.2z"/>
<path class="st1" d="M-105.4,274.9c-0.7-3.7-2.5-7.2-5.2-9.9c-5.7-5.7-15.4-8.1-22.9-1.7c-5,4.3-11.1-1.7-13.6-4.3
	c-2.6-2.6-8.6-8.6-4.3-13.6c6.4-7.5,4-17.2-1.7-22.9c-2.7-2.7-6.2-4.5-9.9-5.2c-3.4-0.6-6.7,0.6-9.5,3.4c-4.8,4.8-5.9,8.2-6.3,12.7
	c-0.4,4.4,1,8.4,2.2,10.9c4.7,10.1,11.9,18.1,19,25.2l-0.8,0.8l0.8-0.8c7.1,7.1,15,14.3,25.2,19c2.6,1.2,6.5,2.5,10.9,2.2
	c4.5-0.4,7.9-1.5,12.7-6.3C-106,281.5-104.8,278.2-105.4,274.9z"/>
<path class="st1" d="M-435.8,200.8c-21.7,0-39.3,17.6-39.3,39.3s17.6,39.3,39.3,39.3s39.3-17.6,39.3-39.3S-414.1,200.8-435.8,200.8z
	 M-406,230c-1.5-1-3.3-1.9-5.3-2.7c-2-0.8-4.1-1.5-6.4-2.1c-0.8-3.6-2-7-3.4-10c-0.7-1.5-1.5-2.8-2.3-4
	C-415.2,214.7-408.8,221.6-406,230z M-435.8,268.8c-2.4,0-5.2-2.7-7.4-7.3c-0.7-1.5-1.3-3.1-1.9-4.8c3,0.3,6.1,0.5,9.3,0.5
	c3.2,0,6.3-0.2,9.3-0.5c-0.5,1.7-1.2,3.3-1.9,4.8C-430.6,266.1-433.4,268.8-435.8,268.8z M-435.8,249.7c-3.8,0-7.5-0.3-11-0.8
	c-0.4-2.8-0.6-5.7-0.6-8.7s0.2-5.9,0.6-8.7c3.5-0.5,7.2-0.8,11-0.8s7.5,0.3,11,0.8c0.4,2.8,0.6,5.7,0.6,8.7s-0.2,5.9-0.6,8.7
	C-428.3,249.4-432,249.7-435.8,249.7z M-455.3,246.9c-0.8-0.3-1.5-0.5-2.2-0.8c-5-2-7.2-4.4-7.2-5.9c0-1.5,2.2-3.9,7.2-5.9
	c0.7-0.3,1.5-0.6,2.2-0.8c-0.2,2.2-0.3,4.4-0.3,6.7C-455.6,242.4-455.5,244.7-455.3,246.9z M-435.8,211.5c2.4,0,5.2,2.7,7.4,7.3
	c0.7,1.5,1.3,3.1,1.9,4.8c-3-0.3-6.1-0.5-9.3-0.5c-3.2,0-6.3,0.2-9.3,0.5c0.5-1.7,1.2-3.3,1.9-4.8
	C-441,214.2-438.3,211.5-435.8,211.5z M-416.3,233.4c0.8,0.3,1.5,0.5,2.2,0.8c5,2,7.2,4.4,7.2,5.9c0,1.5-2.2,3.9-7.2,5.9
	c-0.7,0.3-1.5,0.6-2.2,0.8c0.2-2.2,0.3-4.4,0.3-6.7C-416,237.9-416.1,235.6-416.3,233.4z M-448.3,211.2c-0.8,1.2-1.6,2.6-2.3,4
	c-1.4,3-2.6,6.3-3.4,10c-2.3,0.6-4.4,1.3-6.4,2.1c-2,0.8-3.8,1.7-5.3,2.7C-462.8,221.6-456.4,214.7-448.3,211.2z M-465.7,250.4
	c1.5,1,3.3,1.9,5.3,2.7c2,0.8,4.1,1.5,6.4,2.1c0.8,3.6,2,7,3.4,10c0.7,1.5,1.5,2.8,2.3,4C-456.4,265.6-462.8,258.8-465.7,250.4z
	 M-423.3,269.1c0.8-1.2,1.6-2.6,2.3-4c1.4-3,2.6-6.3,3.4-10c2.3-0.6,4.4-1.3,6.4-2.1c2-0.8,3.8-1.7,5.3-2.7
	C-408.8,258.8-415.2,265.6-423.3,269.1z"/>
<g>
	<circle class="st1" cx="1035.1" cy="147.7" r="10.5"/>
	<path class="st1" d="M1035.1,113.9c-12.9,0-24.6,7.7-29.7,19.5c-1.3,2.9,0.1,6.3,3,7.6s6.3-0.1,7.6-3c3.3-7.6,10.8-12.6,19.1-12.6
		c8.3,0,15.8,4.9,19.1,12.6c0.9,2.2,3.1,3.5,5.3,3.5c0.8,0,1.5-0.2,2.3-0.5c2.9-1.3,4.3-4.6,3-7.6
		C1059.7,121.6,1048.1,113.9,1035.1,113.9z"/>
	<path class="st1" d="M1080.1,116.8c-10-15.2-26.8-24.3-45-24.3c-18.2,0-35,9.1-45,24.3c-1.7,2.7-1,6.2,1.7,8c1,0.6,2.1,0.9,3.1,0.9
		c1.9,0,3.7-0.9,4.8-2.6c7.9-12,21.1-19.1,35.4-19.1s27.5,7.2,35.4,19.1c1.7,2.7,5.3,3.4,8,1.7
		C1081.1,123,1081.9,119.4,1080.1,116.8z"/>
</g>
<g>
	<path class="st1" d="M-283.3,265c-2-0.5-3.8-1.5-5-2.8c-0.5-0.5-1.3-0.8-2-0.8c-0.8,0-1.5,0.3-2,0.8l-0.2,0.2
		c-0.5,0.5-0.8,1.3-0.8,2c0,0.8,0.3,1.5,0.9,2c2.4,2.4,5.9,4.1,9.5,4.7l0.3,0.1v2.7c0,1.6,1.3,2.9,2.9,2.9h0.3
		c1.6,0,2.9-1.3,2.9-2.9v-2.8l0.3-0.1c5.9-1.1,9.5-4.8,9.5-9.9c0.1-6.9-5.1-9.4-9.5-10.8l-0.3-0.1V241l0.5,0.1
		c1.3,0.3,2.5,0.7,3.4,1.3c0.4,0.3,1,0.4,1.5,0.4c1,0,1.9-0.5,2.4-1.3l0.1-0.2c0.4-0.6,0.5-1.4,0.4-2.2c-0.2-0.7-0.7-1.4-1.3-1.8
		c-1.8-1.1-4.2-1.9-6.6-2.3l-0.4-0.1v-2c0-1.6-1.3-2.9-2.9-2.9h-0.3c-1.6,0-2.9,1.3-2.9,2.9v2.2l-0.3,0.1c-5.5,1.1-8.7,4.5-8.7,9.2
		c0,5,2.9,8.4,8.8,10.4l0.3,0.1v10.3L-283.3,265z M-276.8,256.7l0.6,0.3c2.3,1,3.2,2.2,3.2,4.2c0,1.7-1.1,2.9-3.2,3.6l-0.5,0.2
		C-276.8,265-276.8,256.7-276.8,256.7z M-283.4,247.9c-1.7-0.9-2.4-1.9-2.4-3.6c0-1.3,0.8-2.2,2.5-2.9l0.6-0.2v7L-283.4,247.9z"/>
	<path class="st1" d="M-239.7,228.5c-0.8-0.7-2-0.8-3-0.3l-5.6,3.1c-7-10.8-19-17.3-31.9-17.3c-21,0-38.1,17.1-38.1,38.1
		c0,2.3,1.9,4.2,4.2,4.2c2.3,0,4.2-1.9,4.2-4.2c0-16.4,13.4-29.8,29.8-29.8c9.9,0,19.1,4.9,24.6,13l-5.3,2.9
		c-0.9,0.5-1.5,1.6-1.4,2.6c0.1,1.1,0.9,2,1.9,2.3l14.1,4.1c0.2,0.1,0.5,0.1,0.7,0.1c0.4,0,0.9-0.1,1.3-0.3c0.6-0.3,1.1-0.9,1.3-1.6
		l4.1-14.1C-238.5,230.3-238.9,229.2-239.7,228.5z"/>
	<path class="st1" d="M-245.4,251.3c-2.3,0-4.2,1.9-4.2,4.2c0,16.4-13.4,29.8-29.8,29.8c-9.9,0-19.1-4.9-24.6-13l5.3-2.9
		c0.9-0.5,1.5-1.6,1.4-2.6c-0.1-1.1-0.9-2-1.9-2.3l-14.1-4.1c-0.2-0.1-0.5-0.1-0.7-0.1c-0.4,0-0.9,0.1-1.3,0.3
		c-0.6,0.3-1.1,0.9-1.3,1.6l-4.1,14.1c-0.3,1,0.1,2.2,0.9,2.8c0.8,0.7,2,0.8,3,0.3l5.6-3.1c7,10.8,19,17.3,31.9,17.3
		c21,0,38.1-17.1,38.1-38.1C-241.2,253.1-243.1,251.3-245.4,251.3z"/>
</g>
<path class="st1" d="M935.5,115.8l-7.1-7.1c-0.8-0.8-2.2-0.9-3.1-0.2c-3.2,2.6-7.8,2.4-10.7-0.6c-2.9-2.9-3.2-7.5-0.6-10.7
	c0.8-0.9,0.7-2.3-0.2-3.1l-7.1-7.1c-0.9-0.9-2.4-0.9-3.3,0l-44.4,44.4c-0.9,0.9-0.9,2.4,0,3.3l7.1,7.1c0,0,0,0,0,0
	c0.9,0.9,2.4,0.9,3.3,0c0.1-0.1,0.2-0.2,0.2-0.3c0.2-0.2,0.3-0.4,0.5-0.5c3.1-3.1,8.2-3.1,11.4,0c3.1,3.1,3.1,8.2,0,11.4
	c-0.2,0.2-0.4,0.4-0.6,0.6c-0.5,0.4-0.8,1-0.9,1.7s0.2,1.3,0.7,1.8l7.1,7.1c0.9,0.9,2.4,0.9,3.3,0l44.4-44.4
	C936.4,118.2,936.4,116.8,935.5,115.8z M905.6,130.6c0,0.2-0.1,0.4-0.2,0.5c-0.1,0.1-0.2,0.1-0.3,0.1c-0.1,0-0.1,0-0.2,0l-7.2-2.5
	c-0.1,2.3-0.3,4.3-0.5,6c-0.1,0.3-0.1,0.6-0.2,0.8l3.8,2.1c0.1,0.1,0.2,0.2,0.2,0.3v1.3c0,0.1,0,0.2-0.1,0.2c-0.1,0-0.1,0.1-0.2,0.1
	c0,0-0.1,0-0.1,0l-4.4-1.5c-0.2,0.3-0.5,0.5-0.8,0.5s-0.6-0.2-0.8-0.5l-4.4,1.5c-0.1,0-0.2,0-0.3,0c-0.1-0.1-0.1-0.1-0.1-0.2v-1.3
	c0-0.1,0.1-0.2,0.2-0.3l3.8-2.1c-0.1-0.3-0.1-0.5-0.2-0.8c-0.3-1.7-0.5-3.7-0.5-6l-7.2,2.5c-0.2,0.1-0.4,0-0.5-0.1
	c-0.1-0.1-0.2-0.3-0.2-0.5v-2.3c0-0.2,0.1-0.4,0.3-0.5l1.6-0.9v-0.7c0-0.5,0.4-0.9,0.9-0.9c0.4,0,0.8,0.3,0.9,0.7l1.4-0.8v-0.7
	c0-0.5,0.4-0.9,0.9-0.9c0.4,0,0.7,0.3,0.9,0.6l1.2-0.7c0.1-1.7,0.3-3.4,0.5-4.7c0.2-1.1,0.4-1.9,0.6-2.5c0.1-0.3,0.5-1.2,1.3-1.2
	c0.8,0,1.1,0.9,1.3,1.2c0.2,0.6,0.5,1.4,0.6,2.5c0.2,1.3,0.4,2.9,0.5,4.7l1.2,0.7c0.1-0.4,0.5-0.6,0.9-0.6c0.5,0,0.9,0.4,0.9,0.9
	v0.7l1.4,0.8c0.1-0.4,0.5-0.7,0.9-0.7c0.5,0,0.9,0.4,0.9,0.9v0.7l1.6,0.9c0.2,0.1,0.3,0.3,0.3,0.5L905.6,130.6L905.6,130.6z
	 M920.9,124.4c-0.9,0.9-2.5,0.9-3.4,0l-19.2-19.2c-0.9-0.9-0.9-2.5,0-3.4c0.9-0.9,2.5-0.9,3.4,0l19.2,19.2
	C921.8,121.9,921.8,123.4,920.9,124.4z"/>
<path class="st1" d="M912.1,248.7v-19.2h0.2c1.8,0,3.3-1.5,3.3-3.3s-1.5-3.3-3.3-3.3h-3.4H886h-3.4c-1.8,0-3.3,1.5-3.3,3.3
	s1.5,3.3,3.3,3.3h0.2v19.2c-5.7,1.5-9.9,6.6-9.9,12.8V295c0,6.2,4.2,11.4,10,12.8v1.1c0,1.7,1.4,3.1,3.1,3.1c1.7,0,3.1-1.4,3.1-3.1
	v-0.7h16.8v0.7c0,1.7,1.4,3.1,3.1,3.1c1.7,0,3.1-1.4,3.1-3.1v-1.1c5.7-1.5,10-6.6,10-12.8v-33.6C922,255.3,917.8,250.2,912.1,248.7z
	 M905.6,229.5v18.7h-16.3v-18.7H905.6z M909.2,264.5h-23.7c-1.6,0-2.9-1.3-2.9-2.9s1.3-2.9,2.9-2.9h23.7c1.6,0,2.9,1.3,2.9,2.9
	S910.9,264.5,909.2,264.5z"/>
<g>
	<path class="st1" d="M-156.3,387.1c0.7-0.5,1.6-0.9,2.5-1.3c0.9-0.4,2-0.7,3.1-1c0.4-1.7,0.9-3.4,1.6-4.8c0.3-0.7,0.7-1.4,1.1-1.9
		C-151.9,379.7-155,383-156.3,387.1z"/>
	<path class="st1" d="M-152.4,389.1c-2.4,1-3.5,2.1-3.5,2.8s1.1,1.9,3.5,2.8c0.3,0.1,0.7,0.3,1.1,0.4c-0.1-1.1-0.1-2.1-0.1-3.2
		s0.1-2.2,0.1-3.2C-151.7,388.9-152.1,389-152.4,389.1z"/>
	<path class="st1" d="M-146.4,399.9c0.3,0.8,0.6,1.6,0.9,2.3c1,2.2,2.4,3.5,3.6,3.5c1.2,0,2.5-1.3,3.5-3.5c0.3-0.7,0.6-1.5,0.9-2.3
		c-1.4,0.2-2.9,0.2-4.4,0.2S-145,400.1-146.4,399.9z"/>
	<path class="st1" d="M-137.6,384c-0.3-0.8-0.6-1.6-0.9-2.3c-1-2.2-2.4-3.5-3.5-3.5c-1.2,0-2.5,1.3-3.6,3.5
		c-0.3,0.7-0.6,1.5-0.9,2.3c1.4-0.2,2.9-0.2,4.4-0.2C-140.5,383.8-139,383.8-137.6,384z"/>
	<path class="st1" d="M-150.7,399.2c-1.1-0.3-2.1-0.6-3.1-1c-1-0.4-1.8-0.8-2.5-1.3c1.4,4,4.4,7.3,8.3,9c-0.4-0.6-0.8-1.2-1.1-1.9
		C-149.8,402.5-150.3,400.9-150.7,399.2z"/>
	<path class="st1" d="M-133.3,399.2c-0.4,1.7-0.9,3.4-1.6,4.8c-0.3,0.7-0.7,1.4-1.1,1.9c3.9-1.7,6.9-5,8.3-9
		c-0.7,0.5-1.6,0.9-2.5,1.3C-131.1,398.6-132.2,398.9-133.3,399.2z"/>
	<path class="st1" d="M-122.6,357.4h-38.7c-4.8,0-8.6,3.9-8.6,8.6v58.4c0,4.8,3.9,8.6,8.6,8.6h38.7c4.8,0,8.6-3.9,8.6-8.6V366
		C-114,361.2-117.9,357.4-122.6,357.4z M-126.5,420.4h-31c-1.5,0-2.8-1.2-2.8-2.8c0-1.5,1.2-2.8,2.8-2.8h31c1.5,0,2.8,1.2,2.8,2.8
		C-123.7,419.2-125,420.4-126.5,420.4z M-142,410.9c-10.4,0-18.9-8.5-18.9-18.9s8.5-18.9,18.9-18.9s18.9,8.5,18.9,18.9
		S-131.6,410.9-142,410.9z"/>
	<path class="st1" d="M-142,387.4c-1.8,0-3.6,0.1-5.3,0.4c-0.2,1.3-0.3,2.7-0.3,4.2s0.1,2.8,0.3,4.2c1.7,0.3,3.4,0.4,5.3,0.4
		c1.8,0,3.6-0.1,5.3-0.4c0.2-1.3,0.3-2.7,0.3-4.2c0-1.4-0.1-2.8-0.3-4.2C-138.4,387.5-140.2,387.4-142,387.4z"/>
	<path class="st1" d="M-136,378.1c0.4,0.6,0.8,1.2,1.1,1.9c0.7,1.4,1.2,3,1.6,4.8c1.1,0.3,2.1,0.6,3.1,1c1,0.4,1.8,0.8,2.5,1.3
		C-129,383-132.1,379.7-136,378.1z"/>
	<path class="st1" d="M-131.6,394.8c2.4-1,3.5-2.1,3.5-2.8s-1.1-1.9-3.5-2.8c-0.3-0.1-0.7-0.3-1.1-0.4c0.1,1.1,0.1,2.1,0.1,3.2
		s-0.1,2.2-0.1,3.2C-132.3,395.1-131.9,394.9-131.6,394.8z"/>
</g>
<g>
	<path class="st1" d="M864.6,547.3C864.6,547.3,864.6,547.3,864.6,547.3c-0.9,0.5-1.3,1.5-0.9,2.4c0.4,0.9,1.4,1.4,2.4,1.1l26.8-8.9
		l-5,8.2c-0.4,0.6-0.3,1.4,0.2,1.9c0.5,0.5,1.2,0.6,1.8,0.3l5.2-2.7c0.2-0.1,0.3-0.2,0.4-0.3l15.5-16.2l19.2-10
		c7.3-3.9,6.4-6.9,6-7.8c-0.3-0.6-1.1-1.5-2.7-2c-1.7-0.5-4-0.4-7,0.1c-1,0.2-1.6,0.2-2.1,0.1c-2.1-0.1-3.4,0.1-10.4,3.7l-37.8,19.7
		l-14.7-7.6c-0.6-0.3-1.2-0.3-1.8,0l-2.5,1.3c-0.5,0.3-0.9,0.7-1,1.3c-0.1,0.6,0,1.1,0.4,1.6l10.2,12.7L864.6,547.3z"/>
	<path class="st1" d="M934.3,562.7h-71.6c-2,0-3.6,1.6-3.6,3.6s1.6,3.6,3.6,3.6h71.6c2,0,3.6-1.6,3.6-3.6S936.3,562.7,934.3,562.7z"
		/>
</g>
<g>
	<path class="st1" d="M997,530.2C997,530.2,997,530.2,997,530.2c-1-0.2-2,0.5-2.3,1.5c-0.2,1,0.3,2,1.3,2.4l27.7,9.2l-9.2,3.7
		c-0.7,0.3-1.1,0.9-1,1.7c0.1,0.7,0.6,1.3,1.3,1.4l6,1c0.2,0,0.3,0,0.5,0l22.9-3.8l22.1,3.6c8.4,1.3,9.6-1.8,9.8-2.7
		c0.1-0.7,0-1.9-1.1-3.3c-1.1-1.4-3-2.8-5.8-4.2c-0.9-0.5-1.4-0.8-1.9-1.2c-1.7-1.3-2.9-2.1-10.9-3.4l-43.5-7.2l-7.4-15.4
		c-0.3-0.6-0.8-1-1.5-1.1l-2.8-0.5c-0.6-0.1-1.2,0.1-1.6,0.5c-0.4,0.4-0.7,1-0.7,1.6l0.6,16.8L997,530.2z"/>
	<path class="st1" d="M1072.1,563.2H998c-2.1,0-3.8,1.7-3.8,3.8s1.7,3.8,3.8,3.8h74.1c2.1,0,3.8-1.7,3.8-3.8
		C1075.9,564.9,1074.2,563.2,1072.1,563.2z"/>
</g>
<g>
	<g>
		<path class="st1" d="M1049,233.8c-1.4,0-2.7,0.3-4,0.8c-0.6,0.2-1,0.7-1.3,1.3c-0.2,0.6-0.3,1.2,0,1.8c0.4,0.9,1.2,1.5,2.2,1.5
			c0.3,0,0.6-0.1,0.9-0.2c0.7-0.3,1.5-0.4,2.3-0.4c1.7,0,3.2,0.6,4.4,1.8c1.7,1.7,2.3,4.4,1.4,6.7c-0.3,0.9-0.1,1.9,0.5,2.5
			c0.2,0.2,0.5,0.4,0.8,0.5c0.3,0.1,0.6,0.2,0.9,0.2c1,0,1.8-0.6,2.2-1.5c1.6-4.1,0.7-8.7-2.4-11.7
			C1054.6,234.9,1051.9,233.8,1049,233.8z"/>
		<path class="st1" d="M1064.1,229.6c-3.4-3.4-7.8-5.2-12.6-5.2c-1.2,0-2.5,0.1-3.7,0.4c-1.3,0.3-2.1,1.5-1.8,2.8
			c0.1,0.5,0.3,0.9,0.6,1.2c0.6,0.6,1.4,0.8,2.2,0.6c0.9-0.2,1.8-0.3,2.7-0.3c3.5,0,6.8,1.4,9.2,3.8c3.1,3.1,4.5,7.6,3.6,11.9
			c-0.1,0.6,0,1.2,0.3,1.8c0.3,0.5,0.9,0.9,1.5,1c0.2,0,0.3,0.1,0.5,0.1l0,0c1.1,0,2.1-0.8,2.3-1.9
			C1070.2,239.9,1068.4,233.8,1064.1,229.6z"/>
	</g>
	<path class="st1" d="M1014.8,237.1c-1.2-1.2-3.2-1.2-4.4,0c-6.1,6.1-9.5,14.3-9.5,22.9c0,8.7,3.4,16.8,9.5,22.9
		c6.1,6.1,14.3,9.5,22.9,9.5c8.7,0,16.8-3.4,22.9-9.5c1.2-1.2,1.2-3.2,0-4.4L1014.8,237.1z M1014.4,270.6c-0.4,0.7-1,1.2-1.7,1.4
		c-0.7,0.2-1.5,0.1-2.1-0.2c-0.7-0.4-1.3-1-1.5-1.8c-1.1-3.7-1.5-7.7-1.1-12c0.1-0.8,0.4-1.5,1-2c0.6-0.5,1.3-0.7,2.1-0.7
		c0.4,0,0.7,0.1,1.1,0.3c1.1,0.5,1.7,1.6,1.6,2.8c-0.3,3.6,0,6.9,0.9,9.9C1014.8,269.1,1014.8,269.9,1014.4,270.6z M1016.1,248
		L1016.1,248c-0.2,0.4-0.5,1.3-0.6,1.8c-0.2,0.8-0.7,1.4-1.4,1.8s-1.5,0.5-2.2,0.3c-0.2,0-0.3-0.1-0.5-0.2c-1.3-0.6-1.9-2-1.5-3.4
		c0.3-1,0.7-2.3,1.2-3.1c0.7-1.4,2.4-1.9,3.8-1.2c0,0,0.1,0,0.1,0.1C1016.3,244.9,1016.8,246.6,1016.1,248z"/>
	<path class="st1" d="M1044.1,259.1c3.2-1,5.5-4,5.5-7.5c0-4.4-3.5-7.9-7.9-7.9c-3.5,0-6.5,2.3-7.5,5.5h-4.9l14.8,14.8V259.1z"/>
	<path class="st1" d="M1034.1,297c-0.7,0-1.3,0.1-2,0.1c0,0,0,0,0,0c-7,0-13.7-2.1-19.4-6v16c0,1.7,1.4,3.1,3.1,3.1h17.8
		c0,0,0,0,0,0c1.7,0,3.6-1.6,2.9-4L1034.1,297z"/>
</g>
<path class="st1" d="M-116.1,510.6h-12.7V503c0-2.4-2-4.4-4.4-4.4h-18.7c-2.4,0-4.4,2-4.4,4.4v7.6h-12.7c-4.4,0-7.9,3.6-7.9,7.9v31
	c0,4.4,3.6,7.9,7.9,7.9h52.8c4.4,0,7.9-3.6,7.9-7.9v-31C-108.1,514.2-111.7,510.6-116.1,510.6z M-149.6,505.2h14.3v5.3h-14.3V505.2z
	 M-121.4,546.2h-42.2c-1.2,0-2.2-1-2.2-2.2s1-2.2,2.2-2.2h42.2c1.2,0,2.2,1,2.2,2.2C-119.2,545.2-120.2,546.2-121.4,546.2z"/>
<g>
	<path class="st1" d="M-436.3,518.3c4.3,0,7.8-3.5,7.8-7.8c0-4.3-3.5-7.8-7.8-7.8s-7.8,3.5-7.8,7.8S-440.6,518.3-436.3,518.3z"/>
	<path class="st1" d="M-417.8,482.6h-12.2v-7.7c0-1.2-0.9-2.1-2.1-2.1h-8.4c-1.2,0-2.1,0.9-2.1,2.1v7.7h-12.2
		c-4.6,0-8.3,3.7-8.3,8.3v55.8c0,4.6,3.7,8.3,8.3,8.3h37c4.6,0,8.3-3.7,8.3-8.3v-55.8C-409.5,486.3-413.2,482.6-417.8,482.6z
		 M-439,475.9h5.5c0.7,0,1.3,0.6,1.3,1.3s-0.6,1.3-1.3,1.3h-5.5c-0.7,0-1.3-0.6-1.3-1.3C-440.4,476.5-439.8,475.9-439,475.9z
		 M-443.2,485.4h0.6v0.5c0,1.2,0.9,2.1,2.1,2.1h8.4c1.2,0,2.1-0.9,2.1-2.1v-0.5h0.6c1.3,0,2.3,1,2.3,2.3s-1,2.3-2.3,2.3h-13.9
		c-1.3,0-2.3-1-2.3-2.3C-445.5,486.5-444.5,485.4-443.2,485.4z M-450.5,500.6h28.4v26.9h-3.3l0.4-5.5c0.1-0.7-0.2-1.5-0.7-2
		c-0.5-0.5-1.2-0.9-2-0.9H-445c-0.7,0-1.5,0.3-2,0.9c-0.5,0.5-0.8,1.3-0.7,2l0.4,5.5h-3.3L-450.5,500.6L-450.5,500.6z M-422.4,543.1
		h-27.7c-1.4,0-2.6-1.2-2.6-2.6s1.2-2.6,2.6-2.6h27.7c1.4,0,2.6,1.2,2.6,2.6S-421,543.1-422.4,543.1z"/>
</g>
<g>
	<path class="st1" d="M-408.6,351.1h-18.7c-5.2,0-10.1,2.8-12.7,7.3l-14.2,24.4h-1.6l0.7-8.6c0-0.5-0.1-1-0.5-1.3
		c-0.3-0.4-0.8-0.6-1.3-0.6h-11.4c-0.5,0-1,0.2-1.3,0.6c-0.3,0.4-0.5,0.8-0.5,1.3l0.7,9.6c-5.6,2.1-9.5,7.5-9.5,13.8
		c0,8.1,6.6,14.7,14.7,14.7h18.3c5.2,0,10.1-2.8,12.7-7.3l14.2-24.4h10.2c8.1,0,14.7-6.6,14.7-14.7
		C-393.9,357.7-400.5,351.1-408.6,351.1z M-408.6,371.4h-12.8c-1.6,0-3.1,0.9-3.9,2.2l-15.5,26.6c-1,1.7-2.9,2.8-4.9,2.8h-18.3
		c-3.1,0-5.7-2.5-5.7-5.7s2.5-5.7,5.7-5.7h12.5c1.6,0,3.1-0.9,3.9-2.2l15.5-26.6c1-1.7,2.9-2.8,4.9-2.8h18.7c3.1,0,5.7,2.5,5.7,5.7
		S-405.5,371.4-408.6,371.4z"/>
	<path class="st1" d="M-462.6,371.7c2.8,0,5.1-2.3,5.1-5.1c0-2.8-2.3-5.1-5.1-5.1c-2.8,0-5.1,2.3-5.1,5.1
		C-467.7,369.4-465.4,371.7-462.6,371.7z"/>
	<path class="st1" d="M-405.6,390.4c-0.4-1.4-1.7-2.4-3.1-2.4c-0.3,0-0.5,0-0.8,0.1l-7.9,2c-1.7,0.4-2.8,2.2-2.3,3.9
		c0.4,1.4,1.7,2.4,3.1,2.4c0.3,0,0.5,0,0.8-0.1l0.3-0.1l-6.3,10.7c-0.9,1.5-0.4,3.5,1.1,4.4c0.5,0.3,1.1,0.4,1.6,0.4
		c1.1,0,2.2-0.6,2.8-1.6l6.3-10.7l0.1,0.3c0.2,0.8,0.7,1.5,1.5,2c0.7,0.4,1.6,0.6,2.4,0.3c1.7-0.4,2.8-2.2,2.3-3.9L-405.6,390.4z"/>
</g>
<g>
	<path class="st1" d="M924,388.3h-1.8l0.5-5.9c0-0.5-0.1-0.9-0.4-1.3c-0.3-0.3-0.8-0.5-1.2-0.5h-11c-0.5,0-0.9,0.2-1.2,0.5
		s-0.5,0.8-0.4,1.3l0.5,5.9h-2.9c-5.1,0-9.8,2.7-12.3,7.1L879.8,419h-9.6c-7.9,0-14.3,6.4-14.3,14.3s6.4,14.3,14.3,14.3H888
		c5.1,0,9.8-2.7,12.3-7.1l13.8-23.7h9.9c7.9,0,14.3-6.4,14.3-14.3S931.9,388.3,924,388.3z M924,408h-12.4c-1.6,0-3,0.8-3.8,2.2
		L892.7,436c-1,1.7-2.8,2.7-4.7,2.7h-17.8c-3,0-5.5-2.5-5.5-5.5c0-3,2.5-5.5,5.5-5.5h12.1c1.6,0,3-0.8,3.8-2.2l15.1-25.8
		c1-1.7,2.8-2.7,4.7-2.7H924c3,0,5.5,2.5,5.5,5.5S927,408,924,408z"/>
	<path class="st1" d="M915.5,380c2.7,0,5-2.2,5-5c0-2.7-2.2-5-5-5c-2.7,0-5,2.2-5,5C910.5,377.8,912.7,380,915.5,380z"/>
	<path class="st1" d="M927.5,424.5c-0.5-0.3-1-0.4-1.6-0.4c-1.1,0-2.1,0.6-2.7,1.5l-6.1,10.4l-0.1-0.3c-0.2-0.8-0.7-1.5-1.4-1.9
		c-0.7-0.4-1.6-0.5-2.4-0.3c-1.7,0.4-2.7,2.1-2.2,3.8l2,7.6c0.4,1.4,1.6,2.3,3,2.3c0.3,0,0.5,0,0.8-0.1l7.6-2
		c1.7-0.4,2.7-2.1,2.2-3.8c-0.4-1.4-1.6-2.3-3-2.3c-0.3,0-0.5,0-0.8,0.1l-0.3,0.1l6.1-10.4C929.5,427.3,929,425.3,927.5,424.5z"/>
</g>
<g>
	<path class="st1" d="M-295.5,423.8c-3.8,0-6.9,3.1-6.9,6.9s3.1,6.9,6.9,6.9c3.8,0,6.9-3.1,6.9-6.9S-291.6,423.8-295.5,423.8z"/>
	<path class="st1" d="M-252,423.8c-3.8,0-6.9,3.1-6.9,6.9s3.1,6.9,6.9,6.9s6.9-3.1,6.9-6.9S-248.2,423.8-252,423.8z"/>
	<path class="st1" d="M-246.3,413.2h-55v-49.6c0-1.2-0.5-2.3-1.4-3.1l-7.6-6.4c-1.7-1.5-4.3-1.2-5.7,0.5c-1.5,1.7-1.2,4.3,0.5,5.7
		l6.1,5.2v51.7c0,2.3,1.8,4.1,4.1,4.1h59c2.3,0,4.1-1.8,4.1-4.1C-242.2,415.1-244.1,413.2-246.3,413.2z"/>
	<path class="st1" d="M-294.9,409.2h49.5c1.6,0,2.9-1.3,2.9-2.9v-12.9c0-1.6-1.3-2.9-2.9-2.9h-49.5c-1.6,0-2.9,1.3-2.9,2.9v12.9
		C-297.9,407.9-296.5,409.2-294.9,409.2z M-276.6,398.3c0-0.4,0.3-0.7,0.7-0.7h11.5c0.4,0,0.7,0.3,0.7,0.7v3c0,0.4-0.3,0.7-0.7,0.7
		h-11.5c-0.4,0-0.7-0.3-0.7-0.7C-276.6,401.3-276.6,398.3-276.6,398.3z"/>
	<path class="st1" d="M-294.9,387.6h49.5c1.6,0,2.9-1.3,2.9-2.9v-12.9c0-1.6-1.3-2.9-2.9-2.9h-49.5c-1.6,0-2.9,1.3-2.9,2.9v12.9
		C-297.9,386.3-296.5,387.6-294.9,387.6z M-276.6,376.7c0-0.4,0.3-0.7,0.7-0.7h11.5c0.4,0,0.7,0.3,0.7,0.7v3c0,0.4-0.3,0.7-0.7,0.7
		h-11.5c-0.4,0-0.7-0.3-0.7-0.7C-276.6,379.7-276.6,376.7-276.6,376.7z"/>
</g>
<g>
	<path class="st1" d="M1041.9,708.5c-2.9,0-5.3,2.4-5.3,5.3c0,2.9,2.4,5.3,5.3,5.3s5.3-2.4,5.3-5.3
		C1047.2,710.8,1044.9,708.5,1041.9,708.5z"/>
	<path class="st1" d="M1062.2,708.5c-2.9,0-5.3,2.4-5.3,5.3c0,2.9,2.4,5.3,5.3,5.3c2.9,0,5.3-2.4,5.3-5.3
		C1067.5,710.8,1065.1,708.5,1062.2,708.5z"/>
	<path class="st1" d="M1077.1,660c-0.8-0.9-1.8-1.4-3-1.4c0,0,0,0,0,0l-61.9,0l-6.2-10c-0.7-1.2-2-1.9-3.4-1.9c0,0,0,0,0,0l-6.3,0
		c-2.2,0-4,1.8-4,4c0,2.2,1.8,4,4,4c0,0,0,0,0,0l4,0l30.1,48.7c0.7,1.2,2,1.9,3.4,1.9h35.5c2.2,0,4-1.8,4-4s-1.8-4-4-4h-33.3
		l-2.1-3.3h36.1c2,0,3.6-1.4,3.9-3.4l4-27.4C1078.2,662.1,1077.8,660.9,1077.1,660z M1070.3,679.7l-0.3,2.1
		c-0.2,1.2-1.2,2.1-2.4,2.1c-0.1,0-0.3,0-0.4,0c-1.4-0.2-2.3-1.5-2.1-2.8l0.3-2.1c0.2-1.4,1.5-2.3,2.8-2.1
		C1069.6,677.1,1070.5,678.4,1070.3,679.7z M1072.5,666.1l-1.1,6.9c-0.2,1.2-1.2,2.1-2.4,2.1c-0.1,0-0.3,0-0.4,0
		c-1.4-0.2-2.3-1.5-2.1-2.8l1.1-6.9c0.2-1.4,1.5-2.3,2.8-2.1C1071.8,663.5,1072.7,664.8,1072.5,666.1z"/>
</g>
<path class="st1" d="M-247.5,635.5h-1.8v-1.6c0-3.6-2.9-6.5-6.5-6.5h-47.2c-3.6,0-6.5,2.9-6.5,6.5v1.6h-1.8c-2.2,0-3.9,1.8-3.9,3.9
	v18.8c0,2.2,1.8,3.9,3.9,3.9h1.8v33.6c0,3,2,5.5,4.7,6.3v5.6c0,1,0.8,1.9,1.9,1.9h7.9c1,0,1.9-0.8,1.9-1.9v-5.4h27.3v5.4
	c0,1,0.8,1.9,1.9,1.9h7.9c1,0,1.9-0.8,1.9-1.9V702c2.7-0.8,4.7-3.3,4.7-6.3v-33.6h1.8c2.2,0,3.9-1.8,3.9-3.9v-18.8
	C-243.6,637.2-245.3,635.5-247.5,635.5z M-301.4,638.9h44.1v24.1h-44.1V638.9z M-294.1,693.5c-3.8,0-6.8-3.1-6.8-6.8
	c0-3.8,3.1-6.8,6.8-6.8s6.8,3.1,6.8,6.8S-290.4,693.5-294.1,693.5z M-271.4,686.7c0-3.8,3.1-6.8,6.8-6.8c3.8,0,6.8,3.1,6.8,6.8
	c0,3.8-3.1,6.8-6.8,6.8C-268.3,693.5-271.4,690.5-271.4,686.7z"/>
<g>
	<path class="st1" d="M-279.7,485.2c-1.6,0-2.9,1.3-2.9,2.9v79.8c0,1.6,1.3,2.9,2.9,2.9s2.9-1.3,2.9-2.9v-79.8
		C-276.8,486.5-278.1,485.2-279.7,485.2z"/>
	<path class="st1" d="M-305.6,511.9c5.1,0,9.3-4.1,9.3-9.3c0-5.1-4.1-9.3-9.3-9.3s-9.3,4.1-9.3,9.3
		C-314.9,507.8-310.7,511.9-305.6,511.9z"/>
	<path class="st1" d="M-295.3,512.9h-20.5c-0.9,0-1.7,0.4-2.3,1c-0.6,0.6-0.9,1.5-0.8,2.4l1.5,18.9c0.1,0.8,0.4,1.6,1,2.1l3.3,3
		v19.1c0,1.7,1.4,3.2,3.2,3.2h1.4c1.5,0,2.7-1,3.1-2.4c0.4,1.4,1.6,2.4,3.1,2.4h1.4c1.7,0,3.2-1.4,3.2-3.2v-19.1l3.3-3
		c0.6-0.5,1-1.3,1-2.1l1.5-18.9c0.1-0.9-0.2-1.7-0.8-2.4C-293.6,513.3-294.5,512.9-295.3,512.9z"/>
	<path class="st1" d="M-255.9,511.9c5.1,0,9.3-4.1,9.3-9.3c0-5.1-4.1-9.3-9.3-9.3c-5.1,0-9.3,4.1-9.3,9.3
		C-265.2,507.8-261.1,511.9-255.9,511.9z"/>
	<path class="st1" d="M-240.4,548.6l-3.2-18.8l1-13.5c0.1-0.9-0.2-1.7-0.8-2.4c-0.6-0.6-1.4-1-2.3-1h-20.5c-0.9,0-1.7,0.4-2.3,1
		c-0.6,0.6-0.9,1.5-0.8,2.4l1,13.5l-3.2,18.9c-0.1,0.5,0.1,1.1,0.4,1.5c0.4,0.4,0.9,0.6,1.4,0.6h6.1v8.7c0,1.7,1.4,3.2,3.2,3.2h1.4
		c1.5,0,2.7-1,3.1-2.4c0.3,1.4,1.6,2.4,3.1,2.4h1.4c1.7,0,3.2-1.4,3.2-3.2v-8.7h6.1c0,0,0,0,0,0c1,0,1.9-0.8,1.9-1.9
		C-240.3,548.8-240.4,548.7-240.4,548.6z"/>
</g>
<path class="st1" d="M-397.4,668.9l-46.7-46.7c-1.4-1.4-3.2-2.1-5.2-2.1H-463c-4,0-7.3,3.3-7.3,7.3s3.3,7.3,7.3,7.3h10.6l7.3,7.3
	h-20.1c-0.7,0-1.3,0.4-1.6,0.9l-9.5,16.6c-0.2,0.3-0.2,0.6-0.2,0.9v6.6l0,0c1.8,0,3.3,1.5,3.3,3.3s-1.5,3.3-3.3,3.3l0,0v6.1
	c0,1,0.8,1.8,1.8,1.8l7.8,0c0.6,4.4,4.3,7.8,8.8,7.8c4.5,0,8.3-3.4,8.8-7.8l26.6,0c0.6,4.4,4.3,7.8,8.8,7.8c4.5,0,8.3-3.4,8.8-7.8
	h2.2c1.4,0,3.8-0.7,5.3-2.2C-394.5,676.4-394.5,671.8-397.4,668.9z M-458,685.1c-2.6,0-4.8-2.2-4.8-4.8c0-2.6,2.2-4.8,4.8-4.8
	s4.8,2.2,4.8,4.8C-453.2,682.9-455.4,685.1-458,685.1z M-448.7,658.9l-17.3,0v-2.4l4.6-8.1h12.7L-448.7,658.9L-448.7,658.9z
	 M-441.6,645.4l21.9,21.9h-21.9V645.4z M-413.7,685.1c-2.6,0-4.8-2.2-4.8-4.8c0-2.6,2.2-4.8,4.8-4.8c2.6,0,4.8,2.2,4.8,4.8
	C-408.9,682.9-411.1,685.1-413.7,685.1z"/>
<path class="st1" d="M-100.3,670l-25.2-4.1c-0.1,0-0.2,0-0.3,0c-2.2-6.4-6.6-11.9-11.9-13.8l-0.2-2.5h4.2c1.4,0,2.6-1.2,2.6-2.6
	c0-1.4-1.2-2.6-2.6-2.6h-4.6l-0.6-7.9c-0.1-1.4-1.2-2.4-2.6-2.4h-1c-1.4,0-2.5,1-2.6,2.4l-0.6,7.9h-4.6c-1.4,0-2.6,1.2-2.6,2.6
	c0,1.4,1.2,2.6,2.6,2.6h4.2l-0.2,2.5c-5.3,1.9-9.7,7.4-11.9,13.8c-0.1,0-0.2,0-0.3,0l-25.2,4.1c-2.1,0.4-3.6,2.3-3.4,4.4
	c0.2,2.1,2,3.8,4.1,3.8h5.1c0,0.2,0,0.3,0,0.5c0,3.4,2.8,6.2,6.2,6.2c3.4,0,6.2-2.8,6.2-6.2c0-0.2,0-0.3,0-0.5h6
	c0.1,1,0.4,2.1,0.6,3v8.1c-0.2,0-0.4-0.1-0.6-0.1c-1.5,0-2.8,1.2-2.8,2.8v2.1c0,1.5,1.2,2.8,2.8,2.8c0.8,0,1.5-0.3,2-0.9
	c0.5,0.5,1.2,0.9,2,0.9c1.5,0,2.8-1.2,2.8-2.8V692c0-1.5-1.2-2.8-2.8-2.8c-0.2,0-0.4,0-0.6,0.1v-2.5c3,4,7.5,6.3,12.6,6.7v1.6
	c-0.8,0.5-1.4,1.4-1.4,2.4v2.1c0,1.5,1.2,2.8,2.8,2.8c1.5,0,2.8-1.2,2.8-2.8v-2.1c0-1-0.6-1.9-1.4-2.4v-1.6
	c5.1-0.4,9.6-2.7,12.6-6.7v2.5c-0.2,0-0.4-0.1-0.6-0.1c-1.5,0-2.8,1.2-2.8,2.8v2.1c0,1.5,1.2,2.8,2.8,2.8c0.8,0,1.5-0.3,2-0.9
	c0.5,0.5,1.2,0.9,2,0.9c1.5,0,2.8-1.2,2.8-2.8V692c0-1.5-1.2-2.8-2.8-2.8c-0.2,0-0.4,0-0.6,0.1v-8.1c0.3-1,0.5-2,0.6-3h6
	c0,0.2,0,0.3,0,0.5c0,3.4,2.8,6.2,6.2,6.2c3.4,0,6.2-2.8,6.2-6.2c0-0.2,0-0.3,0-0.5h5.1c2.1,0,3.9-1.6,4.1-3.8
	C-96.7,672.3-98.2,670.4-100.3,670z M-171.4,680.7c-1.1,0-2.1-0.9-2.1-2.1s0.9-2.1,2.1-2.1c1.1,0,2.1,0.9,2.1,2.1
	C-169.4,679.8-170.3,680.7-171.4,680.7z M-130.6,668c-0.2,0.5-0.7,0.8-1.2,1c-3.3,1-6.7,1.5-10.1,1.5s-6.8-0.5-10.1-1.5
	c-1-0.3-1.6-1.4-1.3-2.5l1.4-4.7c0.3-1,1.4-1.6,2.5-1.3c2.6,0.8,5,1.1,7.5,1.1c2.5,0,5-0.4,7.5-1.1c0.5-0.2,1-0.1,1.5,0.2
	c0.5,0.2,0.8,0.7,1,1.2l1.4,4.7C-130.3,667-130.4,667.5-130.6,668z M-112.3,680.7c-1.1,0-2.1-0.9-2.1-2.1s0.9-2.1,2.1-2.1
	c1.1,0,2.1,0.9,2.1,2.1C-110.2,679.8-111.2,680.7-112.3,680.7z"/>
<g>
	<path class="st1" d="M906,666.7c0-4.8-3.9-8.7-8.7-8.7c-4.8,0-8.7,3.9-8.7,8.7c0,4.8,3.9,8.7,8.7,8.7
		C902.2,675.3,906,671.5,906,666.7z"/>
	<path class="st1" d="M907,676.2h-19.2c-0.8,0-1.6,0.3-2.2,0.9c-0.6,0.6-0.8,1.4-0.8,2.2l1.4,17.7c0.1,0.8,0.4,1.5,1,2l3.1,2.8v17.9
		c0,1.6,1.3,3,3,3h1.3c1.4,0,2.5-0.9,2.9-2.2c0.3,1.3,1.5,2.2,2.9,2.2h1.3c1.6,0,3-1.3,3-3v-17.9l3.1-2.8c0.6-0.5,0.9-1.2,1-2
		l1.4-17.7c0.1-0.8-0.2-1.6-0.8-2.2C908.6,676.6,907.8,676.2,907,676.2z"/>
	<path class="st1" d="M923.2,644h-13.4v-1.7c0-1.5-1.2-2.8-2.8-2.8h-19.3c-1.5,0-2.8,1.2-2.8,2.8v1.7h-13.4c-1.5,0-2.8,1.2-2.8,2.8
		v73.3c0,1.5,1.2,2.8,2.8,2.8s2.8-1.2,2.8-2.8v-70.5H885v0.6c0,1.5,1.2,2.8,2.8,2.8H907c1.5,0,2.8-1.2,2.8-2.8v-0.6h10.6v70.5
		c0,1.5,1.2,2.8,2.8,2.8s2.8-1.2,2.8-2.8v-73.3C926,645.3,924.8,644,923.2,644z M900,650.1h-11.8v-7.5H900V650.1z M904.2,650.5
		c-1,0-1.9-0.8-1.9-1.9s0.8-1.9,1.9-1.9c1,0,1.9,0.8,1.9,1.9S905.2,650.5,904.2,650.5z M904.2,645.9c-1,0-1.9-0.8-1.9-1.9
		s0.8-1.9,1.9-1.9c1,0,1.9,0.8,1.9,1.9C906,645,905.2,645.9,904.2,645.9z"/>
</g>
<g>
	<path class="st1" d="M1035.2,371.6c-20.5,0-37.2,16.7-37.2,37.2c0,20.5,16.7,37.2,37.2,37.2c20.5,0,37.2-16.7,37.2-37.2
		S1055.8,371.6,1035.2,371.6z M1035.2,436.9c-15.5,0-28.2-12.6-28.2-28.2c0-15.5,12.6-28.2,28.2-28.2c15.5,0,28.2,12.6,28.2,28.2
		C1063.4,424.3,1050.8,436.9,1035.2,436.9z"/>
	<path class="st1" d="M1050.1,403h-9.1v-9.1c0-0.8-0.6-1.4-1.4-1.4h-8.7c-0.8,0-1.4,0.6-1.4,1.4v9.1h-9.1c-0.8,0-1.4,0.6-1.4,1.4
		v8.7c0,0.8,0.6,1.4,1.4,1.4h9.1v9.1c0,0.8,0.6,1.4,1.4,1.4h8.7c0.8,0,1.4-0.6,1.4-1.4v-9.1h9.1c0.8,0,1.4-0.6,1.4-1.4v-8.7
		C1051.5,403.7,1050.9,403,1050.1,403z"/>
</g>
</svg>
